<mxfile host="app.diagrams.net" modified="2021-07-13T08:13:39.277Z" agent="5.0 (Windows NT 10.0; WOW64) AppleWebKit/537.36 (KHTML, like Gecko) Chrome/91.0.4472.124 Safari/537.36" etag="_ieUL0Vd3f8E7XRmU55a" version="14.8.6" type="github">
  <diagram id="GNN1-gXp639409hwijEk" name="Page-1">
    <mxGraphModel dx="1108" dy="482" grid="1" gridSize="10" guides="1" tooltips="1" connect="1" arrows="1" fold="1" page="1" pageScale="1" pageWidth="850" pageHeight="1100" math="0" shadow="0">
      <root>
        <mxCell id="0" />
        <mxCell id="1" parent="0" />
        <mxCell id="1AWHZo-pPpaJ5ypub8Kb-2" value="" style="shape=image;verticalLabelPosition=bottom;labelBackgroundColor=#ffffff;verticalAlign=top;aspect=fixed;imageAspect=0;image=data:image/png,iVBORw0KGgoAAAANSUhEUgAAArIAAAEBCAYAAACEz0bGAAAgAElEQVR4Ae2dC9BlVXmm/ypTwQlCY1QiF0GxwNAJCgajGAEnQKYEE42YmIgVL0yBJhowahIv8TI1qQGvSRqlGe6miN1qNx0CdDI0F5k0k+AAGsjEuwnoxESiAwIxTDJ76tl/v6e/f/XZ5+xzzt777Mt7qjZ77XX51rfe9a21nrP/A6xk/lgBK2AFrIAVsAJWwApYgQ4qsNJBn+2yFbACVsAKWAErYAWsgBXIDLIOAitgBayAFbACVsAKWIFOKmCQ7eS02WkrYAWsgBWwAlbAClgBg6xjwApYAStgBayAFbACVqCTChhkOzltdtoKWAErYAWsgBWwAlbAIOsYsAJWwApYAStgBayAFeikAgbZTk6bnbYCVsAKWAErYAWsgBUwyDoGrIAVsAJWwApYAStgBTqpgEG2k9Nmp62AFbACVsAKWAErYAUMso4BK2AFrIAVsAJWwApYgU4qYJDt5LTZaStgBayAFbACVsAKWAGDrGPAClgBK2AFrIAVsAJWoJMKGGQ7OW122gpYAStgBayAFbACVsAg6xiwAlbAClgBK2AFrIAV6KQCBtlOTpudtgJWwApYAStgBayAFTDIOgasgBWwAlbAClgBK2AFOqmAQbaT02anrYAVsAJWwApYAStgBQyyjgErYAWsgBWwAlbACliBTipgkO3ktNlpK2AFrIAVsAJWwApYAYOsY8AKVKzAfffdl33lK1/xZQ0GFwMPPfRQxavJ5qyAFbACkxUwyE7Wx6VWYCYF7r///uzSSy/NrrrqKl9L0OADH/iA9V+C7sT7ZZddlm3fvn2m9eLKVsAKWIFFFTDILqqg21uBoAAgu2nTpvxA51D31awGGzZsyLZs2WLdlxB7W7duzXbs2BFWg5NWwApYgfoVMMjWr7F7GJACfQXZnZ/7YnbXvd9r3fXZL/3DGmjtI8j+6Z/+Wet0VyzcfNsdI/0NsgPa6DxUK9AiBQyyLZoMu9J9BVKQvfPvHmwlhHzmLz83ApAyb427CLK3fvbuVmp/x9e/O5P2Btnu7wsegRWwAvUpYJCtT1tbHqACBtlm39pOeiNrkK1/LvxGdoCbnIdsBVqmgEG2ZRNid7qtgEG2fnjSn7W5G2Sb1TtqT9og2+39yt5bgT4oYJDtwyx6DK1RwCDbLFgZZJvV2yDbmq3GjlgBK7BLAYOsQ8EKVKiAQbZZsDLINqu3QbbCzcKmrIAVqEQBg2wlMtqIFVhVwCDbLFgZZJvV2yDrnc4KWIG2KWCQbduM2J9OK2CQbRasDLLN6m2Q7fT2ZOetQC8VMMj2clo9qGUpYJDdDVavf/M7sre99/xa/xNYBtndekfIvHjz9Rn6b9q+s1b9/S97LWuncb9WwApIAYOslPDdClSgwKIg2xSA1P3fkX3fhy7MVlZW8uu6nffUBlNVgyzwxxWhsOp0E/8d2Wf82DOzx+27LvvZl59R61gMshVsGjZhBazAQgoYZBeSz42twFoFFgVZAcgLf+a0WgGkbpDF/1e+7ldzmHrre87Lx8LbwWOPOz4748xfyw58yqH5HUgEegGuf/8fXpzn81wWHqsEWfwTfNf5JrNukOWLA+M4+81vz/ZZt99IS+aDixhDf740oTNzQj55pGf54mGQXbv+/WQFrEDzChhkm9fcPfZYgUVANgIIIHLr3ffloCEAAfSAEIEe0AGskEd6FviqE2TxG//xB0DFP4AJcCKfvA9f/Ik8zZ0xkA/wKq2xTwPaKkEWnQHwAw4+JAc79Y22vKUF9JgDfNPYfu4XXpXnA+eqP+1eN8ii4RHrj8r9RFfFy0887wX5Fws0Z5yMB1+pQ33mh7HP8hbXINvjzcxDswIdUcAg25GJspvdUGARkAXkmgKQOkEWcOJN4CWf3J4DIKAEpAtkBXrkA11cQBb5qsNd9SbdqwRZfMZ3/BHk0Td+RvhmnuRnhO+yXyTqBll8B7DRny8ReruPxtJZXyQ0PsZMGphXnUm6q8wg2419yV5agT4rYJDt8+x6bI0rsAjIAh3TAEQAlQJIhEFBxqR7nSCrt5oCJ36riX/yHeDTW1uBIPBFngCrLBRWBbLq9yOXbMr+04c3jt4WS2eBNWOKY5HGwK7qKK/oXifIohu+SHu+GPGMtuTp7TjAyrxofDyTjuBb5H/MN8g2vsW4QytgBRIFDLKJIH60AosoMC/I6mcF0wAE8ANMUgABHmkbIWNSui6QFaAChuqft5mAqkCWP1/zDEhRHzAkTR5vRWcZR1Ugi4/4Jf3xR39iR2+NBx8jyOK/5q4NIAuQAq/SXr7xppmxMRZglbvglXTM11hlY9LdILvIbuG2VsAKVKGAQbYKFW3DCuxSYF6QBY4AKUGDgBBwjQAC6KUAwm84AZFZAKROkE2BTj8rEMgyNtLcGS9jZ4yqJw3K3KsCWf2sQH2iMXk8oy1gCwByl5/kC8ojPMpG0b3uN7L4F/tGa/IE6by1jXPEOATnZd+Ey75B1lufFbACy1bAILvsGXD/vVJgXpAFIFKI4LkuAKkLZAU44+4C2bRMIJvml3muCmQjWNOvYJu0viQICMnTWAS1gvIyPtcJspP6F8imdQSyaX6ZZ4Nsr7YvD8YKdFIBg2wnp81Ot1WBeUF2EjTUASDLANlJY5y3rCqQndQ/oAe4xjoC2ZhXNr0skC3r3yz1DLJt3YnslxUYjgIG2eHMtUfagAJ1gOwsYFG2rkF2/P8Rq6x+i9QzyDawECvs4uGHH84efPBBX9Zgphh44IEHZqo/pBh79NFHK1yhWWaQrVROGxu6AgbZZgGxiTeyi0DruLYG2e7sEo888kj2R3/0R9lVV13lK9HgkksuyT72sY9Zl0QXYuXSSy/NPvrRj1qbMdpceeWV2U033VTpJmCQrVROGxu6AgZZg+w4eI15Btnu7BK8Jdu0aVO2fft2X4kG6HLRRRdZl0QXYmXz5s3Zxo0brc0YbbZt25brUuUuYJCtUk3bGrwCBlmDbITWcWmDbHe2CYNsMcAbZIu1McgWa2OQ7c7+Z08HqoBB1iA7Dl5jnkG2O5uDQbYYSAyyxdoYZIu1Mch2Z/+zpwNVoK8g25U/rW7YsCHbsmVL/qerWz9795r/0kCEyWWmZwXZrmi/devWbMeOHb1a+QbZYiAxyBZrY5At1sYg26st0oPpowIpyHYFQvriZwTZvoypK+MwyBYf3l2Zw1n8NMgWz7dBtlgbg2wfycdj6pUCBtniDWyWQ3LeugbZ5elvkF2e9vOul0XaGWSL59sgW6yNQbZXyOPB9FEBg2zxBrbIoVm2rUF2efoPBWRvuOkz2Y233jbIi7FrLY4D2f924y2D1IV4uOGmW0bajANZa7O6Nxlk+0g+HlOvFEhB9qprP5Nd9Se3+KpJg03X3jw6PDhgI8hefd0N1r0m3RXT266/YaT/UEB25+e+1MrfXjfxu++dn//yaL7HgezOu744WG1u+/xXRtqMA9k/v+sLw9Xmr3ZrY5DtFfJ4MH1UIAXZczZ9OTtn01d81aTBOz7516PDIwXZj237C+tek+6K6Uuu2TnS3yDb7H+xowlwTfswyBbPsUF2gjYG2T7ijsfUVwUMss1Cu0G2Wb0FsLobZIsP7xQC+/BskC2eb4PsBG0Msn1FHo+rjwoYZJsFK4Nss3oLYHU3yBYf3n0A13QMBtni+TbITtDGINtH3PGY+qqAQbZZsDLINqu3AFZ3g2zx4Z1CYB+eDbLF822QnaCNQbavyONx9VEBg2yzYGWQbVZvAazuBtniw7sP4JqOwSBbPN8G2QnaGGT7iDseU18VaDPIvv7SO7PT331Vr/4FqC6B7CvPuybjEgT24W6QLT68Uwjsw7NBtni+DbITtDHI9hV5PK4+KlAnyAKhul674ZYciIDTpz/nlEzPk+DolDecn+3zpIPWgBRg9eK3XDjKw87B65+b26P+YceePCqbZHtZZU2BLLpIe+7ozpjR7rkv//VSGu37pIOzE37lnWvqnvDqd41sYQ9bskf9toOvQbb48F4EXK/beU92ySe3t+4/19QGkG2rNm0A2dZqY5DtI+54TH1VoE6QXVlZyZ546JHZQeufm5EWUAGbZUD2SU9dnx39otesASmgCXsCUezIXlqmOm26NwWyaIHmaMWXAbREh7IgC5DSPp0nzaM05cuDQDYtU5023Q2y9YDsM37smXm8vO9DF7YKZtsAsm3Vpg0g21ptDLJ9RR6Pq48K1A2ywCsgA+QIePRGVlBFPm9V0zettEnf8FE3giy29UaWMsD56FNfu8Ye+Vz0iz3eKtIm9kk5UEYd3QVg6088fY1vyp/n3jTI4iPjQUvS0pw0Y+WZO2PUW1vKjjzxZWPfbqewmoIsb3CjPUCYZ/TlSwnP9IX2sU/qYIs86pHGD+KHMtJVXAbZ6kGWt2rExU887wXZC3/mtBHIArWUve295+eX3vjyTP7r3/yO7MMXf2JUX+VV3pcNstLmiPVH7aHNpu0799AGTZrSZtkg22ptDLJ9xB2Pqa8K1A2ygAnXXnvvOwIlwRBwQxpwAU6pI1gBiNKfFVBGmxRkU3vU4S2t7FFf/QBSQBqARL1xdfQ2EsijPm1ToJafs96bBlnGyJ/89WY76se40Ji8H/yhfdb8jABdBJNxjNJaeak9vkjIHnd0pg352ENT5pZ89Y0t1aEMX/GZ/CKgVv+z3g2y1YPsK1/3qzmkAa7M461335fDKWC7z7r9csB93L7rsrPf/PY8nzoHHHxInk/64s3X1wazywZZtEGHadpQD4BPtakT9JcNssQDgF+kDV+KiJtUG/LRqVZtDLJ9RR6Pq48K1A2ygIjAhrSgRSDJhkSegEdgMu73mZRFcFJdbMieIFf2uJMnkFNf2AGw1T911JY6gDBXEVCr71nvywBZdB+nEXnowBgYu9LAJmXxDa3GKTt6jvMRy6Sn5kG2uPNGnHbMsfqMbeOXhyKgVv+z3g2y1YPsgU85NIcRAJZ5BEyAMgBOECKgE6wJQgAZAW6Vb2Jla9kg22Ztlg2yaPPW95yXf/GZFDf8/KDpuLnNINtH3PGY+qpA3SALyAAbgCRv/UgLWoAY0uQJeEjrjShAw3O8IjgpP9rTb0FlDxsR0gRJACqX+hd4yaZgbtzvdFVnnnvTICsfGSfjjfqRJ5CMGgG++tKh9rpLaz2n9tCNMuzxRUDzoPrY5e0s+Xp7S1lqlzJ+fkC+IFg2FrkbZKsFWf48zhzFSz8vAGQFqdx5FpDoLWysI/is8r5MkG27NssE2XHaHHvc8aMvQDFu+LIzLm70JanKeJEtg2xficfj6qUCdYMsICgg0VtRQQsQRBowicBDPUBmHLDQhrd02OQSmNJe9sjnbZ9sREhTff2OVv2nIEvfgDfltBnnyzx5TYMsWjAHjIVxpODJM+OQRkAjYxaQpmOkTHNK29Qe/dCnbMR5xRYgqzex1FX/1Keu+uNnCOQBw8qr4m6QrRZkgQmBBhAQ/0wMpPLTAn73yf1nX37GCEh4y3bGmb+Wz7He4AoiqrwvE2SLtOG3oW3QZpkg23pt/Ea2l7zjQfVUgTpBFhgBVICi+BtT3gwCTOSRBlDyPznvSgM6436fST3aCKAEQdxlj75oqz5ok/Yv6OWu/qnDFWFJbw9j3qLppkBW0Mr4GCf64Dv6aZyUaV6kEdoBmEXjpI30V5vUHuXKo1/NEzY1z/JL8Ko5VL/6wlEUB6o3690gWz3I6mcCACg/L+CNLG/cgDXSXECsfjvLFxRApu63sfizbJAdpw1vo9ugzbJBttXaGGR7SjweVi8VqBNkZ4UM6gM2gJTAax4bVbXhzS/AVZU97DQFsvP6zBvQop8VzGtznnYALMBTdRwYZKsF2UlvT4tAlXnVTwsmta+ibJkgO8n/NmizTJBtvTYG2V7yjgfVUwXaBrLzQE8dbQCo+Cazqj7aDrJVjXNRO7yR1dviRW3F9gbZ5kCWnwyMA1Z+/8if1yfBTFVlbQXZNmjTVpBthTYG2Z4Sj4fVSwUMsmv/ZbIIPXWkDbLN6p3OoUG2OZCtCkYXsdNWkF1kTFW1bSvIVjW+Rez4X/bqJe54UH1VwCDbLFgZZJvV2yC7Pdv5uS818vZzEXCoq61BtviLi0F2gjZ+I9tX5PG4+qiAQbZZsDLINqu3QdYgu3379oxr06ZN2UUXXZSnlbfzri8OFvINsgbZPjKNxzRABVKQvWDb7dkfXP2XvmrS4KI//h9rDtINGzZkW7ZsyfM+ce0t1r0m3RXTm6+9aaT/1q1bsx07dvRq1T/44IM5sAnUuPuNrEF23Btvg6xBtlebnwczXAVSkI0HoNOrB2CdOkSQrbMf295zLocCsrfe/lfZX/7NNwZ53frZu0dfXMa9kf3M7Z8fpC7EQ9Rm8+bN2caNG0dasV/cOmBt/nuIm23btuW6VEkJK1Uasy0rMHQFDLJ7Ak6T0GeQXZ7+QwHZJuO5zX2NA9k2+9ukb+NAtsn+29yXQXbolOTxt14Bg+zyQIrN2yC7PP0NssvTfhngYpAtnm+DbLE2BtnWY4wdHLoCKci+71N/lb3v03f7qkmD87fcuebPdxFkL7/mz617Tborpv/wTz4z0t8gW3x4LwM06+7TIFs83wbZYm0MskOnJI+/9QqkIHvOpi9X+n+ySv+t8aE/+79a4P9qQZ2bwrh/2atuQOyKfYNsMawZZIu1McjWuWPZthWoQAGDbLNgZZBtVu/0i9MQ/4cIXQHNuv00yBbDmkG2WBuDbAWgYRNWoE4FDLLNgpVBtlm9DbLFB3Td4Ng2+wbZ4lgwyBZrY5Ctk0Bs2wpUoIBBtlmwMsg2q7dBtviAbhto1u2PQbY4FgyyxdoYZCsADZuwAnUqYJBtFqwMss3qbZDdnn1o6x2D/d37B7feMfqX+8aB7Ie3/s/BavOBrbv/xdNxIPuRrZ8drDbvD9oYZOskENu2AhUoYJBtFqwMss3qbZA1yOpNr0F27dozyK7VI+4VBtkK4MImrEBTChhkizezuLFVlTbINqt3Om9D/Je9/EZ29c/GBtm1a88gu1aPuFcYZJsiEPdjBSpQYBaQPf3dV2Vcrzzvmsb+5ERfz335ry/U32s33NK433FTjOl5Qfb1l96ZjwH9SUebdaZPePW78n4X6UNx06TfRf4aZIsP7yLNupzvnxYUz7dBtlgbg2wFcGETVqApBcqALADypKeuz37wh/bJDlr/3GxlZSU7eP1za4Opo1/0muyUN5yf23/xWy7M+5z3MKU9/uI3/gNVZW1FP8q2mVZvHpBFi7323jd74qFHZvs86aB8PIxrWl/zlPPFIc7tYceePJqLeewRN/iM/lxlbaR+lG03rZ5BtvjwnqZdF8sNssXzbZAt1sYg2xSBuB8rUIECZUCWN6JAoN6oARnAIYDF207ugBX1ImCd8ob353m81eMQpK7q0AZ7lJHHnWfa7/ukg3OYIq02tKcNIKo28oc8bOiijQ7dFKBoQz3GQB3apr7QL/nyg3LVjb6Sx7P6xy/5S1o+xPs8IAvEAtWyA1ziG8/4xlg0dmkiP+JYqcvYyKNcfmsM2Ft/4un53KoObagne2qDHerTn+aDNtKKMuoSJ7Gu2lPORVv8Vz42sJn6EfuRPdrQn+IMOzGtPuLdIFt8eEedyqaJC62lsm2arLdMkG27NssE2bZrY5CtAC5swgo0pUAZkE1hkIMIsBUAAVrUAbAAF0EPbxABDd7IqS7lPOttJ3fKyDvhV96ZQ4/e4AmiaEOf9EGaNvR/5Ikvy/sij7r0x0X/OiyxTTlvGQEf8vGTS2nsyAcgSf2mftAnZRor7bFNPj6laerKD91nBVl8xq58xw52ySONL9JTmgB9gl/GRZo86ccd+NC4ucue0rRDR+qSlh/oWzTP2GAONVbu+ET/2MAH+qUed+wrrTq0l2+UyQ/mD180dvyhjDr4g18xLdCPvpA2yO4GWeYDHXVJK9bA0ae+ds08qiy988ad2I/52ItrEHvMFXWYx3HrIravMj0vyA5Bm3lBdpI2fAEtM39l40Zx2HTcGGSbIhD3YwUqUGBekAUUOJw4tAAINi82ONLkAR1sPtQRhKgud212L37rxryO7JEveCKtNsrXocmdegIjDs6nP+eUHM5kW3cOTmAP3wSqpOUveQCUYIp89acDmLt81NtC6sim0qoPWCktP7hXAbL4S7/Yi1rJR2nGMxd1yaMufskfNOMNpsaDlmqrOrKvfLSRbuQBvuiueeCuttzpQ3DM4UUePjB/aM68kAfwEieMjWf1R5qLMeCnxhjHRrnGSTrqo/a6G2R3g6w0Y46ZB80P+umLnnQbd2dumRfusZw8bCuP9afntEx16rrPC7JNaYPW2tOa1mZekK1Km3SvSMe/TG0MshXAhU1YgaYUKAOyHGo65DhwdIBxQEXgiIDD4QjAUM4VIYln7LAhcoBiJ4Kf4Ik60X7Mpy3P+IIN0viZHqrxgKQe7cgDnKjPXXXkB0BFXuyPwwYfNR6Ngc03pmU/tpV97rOCbNRadvBFfsd+6Fs+yi/5y9xQl0t2AHfmCKCM9UmrjuxjJ+arPn1Kf41dbeM9wqW+NBBTpKnHOBkXdtO4opx86mo81Kc/+RTTqa/RD4PsniCLPnF+0I85IF9zwZcILuJIempN6Fl35iTGQrRHGeuOLz+yp7mkL2zSB2/iWIfc1Sc28ZO21CVNn2qv/uN9UZDFVoynOJZJ2uArazH6QrpN2iwKsn3WxiDbFIG4HytQgQJlQFYbOQcIGzRvJtmkOWBiGeUAVn4Qveg1eT3e+PE7SA4d1eXOJghEYYu3snobSj7wxCGmg0KwIqiiDn7wDCDTVr7pcKMOF4cmhyEXdlSut4TcqQck6e0kYEZe9IN2tGcs+k0odcjTeEjjl9oqzbOuWUFWthgjY+Dwpx+0iWX0JTBFf+YBTdCWdqrLmEhTR/7KJuPQHNEGQJDmyqctl8aNvswhNvABu6pDG+aRfKBVB7v6xgZ9UJ/+8BVbcd6jH9jSG3zmHbvYoH1Mp77KH+4G2d2xKM00P8yltFSccCeWqMNdXzyox1zFZ+msuNIzbWWPsmgPcNV8ER/YY63Rhvz45ZO2eqac/umjCKgpWxRk6YfYLaMNdTXmurRR3FehzaIgu0xt2LfTuEm1IS6YjxhzZePGIFsBXNiEFWhKgTIgy2bApsEmwObAYSNg0WbC4aNDSZs59dhwaMcmozcnastdNmmPLdpqQyJPbcgX4MgfnqnD4Sb/2LQER6qHX1zUJU/51FUefVIHf9Q++kEb6qa2Yn3SGkP0VX1ynwdkaYeW8k99kA8gyKc4L/Id/cmnLj5xkebSeMiL46A+z8yPxhHngbaqD1zqUGEedOBTh/bYUgxo3imjnsCWZ+oxDvmqPPWjWIm2NOfU1XhJp76Sp8sgu1sLtGUNcEdX0tJU4MmdcvSLafRO15o0lk090172YhnzTT59qm+10b+0BxDGtlqvzLHaFEEjtqoA2bLaKPa7ok0VIMscah7iPMdYId02bYij+BchxZ3uBtmmCMT9WIEKFCgLslrg6V2HUJrf1DPgo7e5vIGMcDTJBzZd3gxNqlNH2bwgW+RLPDCK6tSZD7zqbbjmoUx/1I3QWqZNFXUMsnuCrHQVZE4CEsqoD9wJTtRed9nRc7QXy7BB/GoP4U4b4kJfTlnP1CFfwCS75AMj5OvLp8p0XxRkZUd+x7HEtUdafgJ3bdCGL5mTtFkUZOfVRjqpve7SWM9R61hWRdxM08YgWwFc2IQVaEqBRUFWb920+SzjzgHIpse37PjWb5Iv1NXBOale1WVVgyzj4A1Q1X6WtYfeeqNb1g/FTNm5KutLmXoG2T1BlrUDEPLFTm+zBRvcKUfbmOaLSHy7H7UHOnhLCiwAdSmQ0I9+zqI3/rTReqQN7WlHP/Il1qE/2pI36cvroiAbtSG+41iiHqTlZ1XaAPRoEsdN/1VpsyjI9lkbg2xTBOJ+rEAFCiwKsvEAc3o3JBRpUTXIFvXj/PFzYZDdrYvADCABCvVWE3gSpAo0iSel+fIEXBV9EQHAsCm70Z7gTGXYxQ7PssddNuiLi3rUkY9qhx/U5XncNS/IzqqN/OySNvOCrL7saA41J2g2Lm6q0kZzoj7mjRviZFrcGGQrgAubsAJNKWCQHX8AjjsUq8gzyDardzpnBtnF9edPu1yptk0/AzSTgBp/5gXZecfSNm0EmePGMy/IjrNVJg9tin5yUaZ9VXUUN5O0Mcg2RSDuxwpUoIBBdvGDfZYN1iDbrN7p3Bhkl6t/Oh+LPAMivKWbZKNpkJ3kS5NlZbRpGmSbHP+kvspoY5CtAC5swgo0pYBBttmD3SDbrN7pgWaQXa7+6XzU/TxUkC2j61BBtow2BtmmCMT9WIEKFDDINnuwG2Sb1Ts9tAyyy9U/nY+6nw2yxfNtkC3WxiBbAVzYhBVoSoEUZK+69jPZVX9yi6+aNNh07c3Z9u3bR9eGDRuyLVu25M9XX3eDda9Jd8X0tutvGGm/devWbMeOHU0ttUb6efDBB7NNmzaNxkisfWjrHRP//F43TC7TvkG2GNYMssXaGGQb2a7ciRWoRoEUZCNkOb0bOOvSIoJsXX3Y7vh5HArIbrnuxsF+Qfr0dTeOoB7Av+iii0bPrIst1+2wNtu3Z5s3b842btxobXZ9kf7UtbvjZtu2bbku1Zy4q1ZWqjRmW1Zg6AoYZMdDTlPwZ5Bdnv5DAdmmYrnt/YwD2bb73JR/40C2qb7b3o9BduiU5PG3XgGD7PJAig3cILs8/Q2yy9N+GfBikC2eb4NssTYG2dZjjB0cugIG2eINrInD1iC7PP0NssvTvom1lfZhkC2eb4NssTYG2aFTksffegXqBNkrrrgi+9SnPjX63dUFF1yQkXf++eeP8tLDZtozNn7jN35j1B575MV2PMd+Y1lMRzvk4xf2Yp2603WCbNQFPRhbOuZZx/fSl750jQRyqf0AACAASURBVD6p1vQT+y2yT5203qK+FfVVlG+QLT68o2bM6dlnn529+93vXjP3sU7Z9KLrv2w/4+rVAbJ90aYOkEWbt7zlLZ2PG4Ns6zHGDg5dgTpBFlCJ4HPUUUflgJnCIgB51llnlTokqXvGGWeM6pLef//9RwCK7cMOO6wULEc7HHy0ZfMddwjWlVcnyJ588smj8aDv7/zO7+wBj4yLeSk7vrQufXCpPfMdn5Wf3plHrpifgm0sqyNtkJ0OsqwH5pzYKYqfcXOTri3VwV66/lVW971qkGUsxx13XC+0qRpk+6SNQXbolOTxt16BOkGWg0ngwyHIGzeBKHfKAB8u0sqjneoJhoEj8pSvQ48DE0jTwcld/dCWZ9pyePLMwUN/pMlX35RTV/bJ1yHFpqy66kf9L3qvE2TRXF8QNA+6Mx6Njy8CGpfulDE2nrnUTneNmzJsoREXusmG2lIuWypHZ80FeZTL9tOf/vTRvJDPfGo+qoQgg+x0kEV7Ls13nEfmS2tMc0m8MbeUkWa+NHfEo9bXuPlXbCj2iBsu+oj9z5uuGmTRRetLPhHzjCNqQ1pja6s2VYNs3HukDVopFphTaZFqg4aUq+6y48Yg23qMsYNDV6BukNWmJNiJBxkbFJuc8kiz6ad5bGr8aRNbsS71lKd29EMdLtlRW/lCPhcbJfd0o6SewIw0B9arXvWq3CaQpfZV3OsEWfxDF2ACXfQc72ma8cY8dEDLZz7zmWvyqcNFffQT8MT5oV+epZnmiHbka/41DyrXHdvMPWBDfc2j+l70bpCdDrLMAdpHrTU/zC/ligHqqIw8tRm3ftP5pw4xxjrjzrPiQnYWvVcNsk1pg86soaiN1vOimqh91SA7TRvmNsZAUdzwcxbZ0j3uG+O0kS2NbdG7QXbolOTxt16BukGWjYZNSxsvm5c2JB2QymPD0dsY5fEtnvq6K1+bk2xRTltBKfXI01sT6nHhT2xLmrqyq3usgw1tnsqv6l43yKI74wYM8FmbvO4xj7TgQeXc0UTzp3yNH9uyobKYR1t+6qE6akc+F8+xfqxHPnUUE2pb1d0gOx1kiXvFhHTXPBNTzJHmKZ07nlk7lKfrN53/ceBKO/VZxb1qkB3ns7Rhn6lKG+2hUYOqtakaZMtoE2NAumlcihvqkBfvpNGC/HHayFbUa5G0Qbb1GGMHh65A3SDLBgLIsDGRHrchsRmx+VDGwQm4sElx8SwYixuaNibl8eaQP5Grj2hL9thc6YeDmTRtY33ZUj5lpLGND7wR4UBW31Xc6wZZdBBI4q82+QiH6HHKKafk45I+qift9ay7xi6tuEsb5VGXtOaFfrjIwy8u7MT60UfymSdiR22JFfW96N0gOx1k0RjtiRcu9GdeiBc9M++aS8UVcUM78hVDmnfVVxvNP3fNM/0qf9F5VvuqQXYRbdBknDbSqGltqgbZVBvtt4ol4ogxapyKG8oX1Ua2NO+L3g2yQ6ckj7/1CjQBsotuJH1uXzfI9lm7RcdmkC0Hsovq3Jb2dYBsW8a2qB91gOyiPrWlvUG29RhjB4eugEF2uYe5QXZ5+htkl6f9MiDFIFs83wbZYm0MskOnJI+/9QoYZIs3sCYOW4Ps8vQ3yC5P+ybWVtqHQbZ4vg2yxdoYZFuPMXZw6AoYZIs3sPQgrOPZILs8/Q2yy9O+jrU0zaZBtni+DbLF2hhkh05JHn/rFTDIFm9g0w7GKsoNssvTv48g+73vfS+77LLLsiuvvNJXosHGjRuz3//937cuiS7EyoUXXmhtxuiCNpdcckl23XXXVXqWr1RqzcaswMAVMMguD6QAYYPs8vTvI8iynbGmv/GNb/gao8E3v/lN6zJGF8fL5PXyyCOPVEoKBtlK5bSxoSvw0EMP5f95qU9/+tOZr+Y1uPjii7OPf/zj1n4J8cefmm+//fahbwEevxWwAg0rYJBtWHB3138FHn300ez73/++L2swuBj4t3/7t/4vcI/QCliBVilgkG3VdNgZK2AFrIAVsAJWwApYgbIKGGTLKuV6VsAKWAErYAWsgBWwAq1SwCDbqumwM1bAClgBK9AmBW743APZpTd825c1cAxUFANf+9a/VLrEOwGy937n+9mX/+GRpV4P/0u5337dZ19nmqeyulYa9TUa+9/f+dfsS3//qC9rMMgYeOj7/6/G1bUc07915TeyF/z2F3xZA8dARTFw4+cfrHQxdwJkv/ith7O77v3eUq8H//lfSwlvX2ebp7K6lhK/BZUuvvGB7E2XfduXNRhkDNx9b7VvWlqwpDODrCHeX2SqjQGD7JKAtixwGWQNsgZZg/xQY8AgW+2Bb4Cynn2MAYOsQXbqm+k+Qncb3syU8cFvZA2xQ4VYxm2QNXj1Ebw8pmrj2iBrkDXIliHKJdUxyBpkDbJLWnw1deufFlQLMYZC62mQNcgaZGs6sKowa5A1yBpkq1hJ7bFhkDV4Gb6rjQGDrEHWINueM24PTwyyBlmD7B7LotMZBtlqIcZQaD0NsgZZg2yLj0WDrEHWINviBTqHawZZg5fhu9oYMMgaZA2ycxxGTTUxyBpkDbJNrbZm+jHIVgsxhkLraZA1yBpkmzm/5urFIGuQNcjOtXRa28gga/AyfFcbAwZZg6xBtrVHXpYZZA2yBtkWL9A5XDPIVgsx06Dw2Dfc2Pr/g1YXfJym8zLLDbITQPbApxyaPePHnjkV9Ob5v4RV/d9mta+r/+OEsrrOcf4spYlBdjrIvuy3/jg764Kv5P/nK+7xuW4I/KX33pT95Et+c5D/1626tcW+/zuyzUJfkzBy5MsuyPbe/8jsMXvtm+1/1M/PDJvPO/f27KhXfnxiu0Ne8MZsZWVlYp1Zxnz0a6/O1h3yk6ML+7O0V13scPHMGPBx2ljU1vc914RBtgBk3/ehC7MDDj4kD7APX/yJEcxet/OePH3JJ7dnt95935p8nskvA7ZlgavM/9nLvu7+v3+V1XUpVDpHpwbZ6SDLIfDzv7kth0nu8blu2Dr1jVdmBz3j+QbZmv4XwgbZPQ/tPoAMEMs6BQQBOEBWbyUnAWqEPQFg1AMbsQ62BIyqRx31FfPSepSl9dQnd0HyuHayqzt+RFuCYZVHn8mLfse06pOXtlHZEO8G2QKQfeHPnJa98nW/mnH/2ZefMYJTFh9vabnvs26/DLC9ePP1GW9EeVb5NJgtC1xlQDb6Slp9yxf7OgdBtqSJQXZ+kOVNaQTck1/3B9mr339Hxv3kMzdkhx1zagaICnaP/+XfzQ760Z/KuJNHXWxQ/ydf8rY8He0d/0v/eVSH+rydPfKnfjm/aEse9umHfMrJwx755Kke+b721MAg20+QBeT23v9H93ibKTjca91B+ZtaIFHwyNtbzjLugBxpXdQBhmmnizqyB9zR5w8ffvKoDTBNfmxHueqqvwiM8oU6gCn9kxf7iXVWx7nqN3Wpp7o8o4Hqyw5teEtNOb4pfeCxv5L7dvhp/yV7zF775G2lBf4M+TLIjgFZ3qwSRJu278x420lab19Jv/U95+XPj9t3XXb2m9+eg6zqA7WkuQsox92rAtmyvvJ2OfWV8Q3V15Zw6lQ3DLJ7wk0KfMQwUAh0cucZ4DzsmBflF/VJ/+hP/VKeT7nKSK8C69uyJz7lx/PyfZ7wlAxI1dtd8gFZtRlnj7y9fmhdXk/ADKz+4L/bd9SWcn76wBtc+n3WKWeN4DYdk59X590g209AAda4InwJTgWYlP/w4SeNQO9pJ719DTwKAGVDbzxlR2DIWqOO7JEGILENKFNOW7Ujj7oAMXlc6kN9Uk47QJMywSlp1SEd7QCiPCtfadWXv+qX+mmatoCtNGIc6EL+kC+D7BiQFbwee9zxo7ev5AGkBK8g9See94I1cChgjXWUl96rAln7uvtnBWhcVtepBNmSCgbZciALpAKb3Fl/QChASRpQ5Q5YCk4BRaBSdZ94yI/nb2OBYd7KApuqq9/fYg8YFbSm9gDefZ94SP62lzqAr352EPsiT/kG1snza5DtJ6AAcQI5AVgEOvKAQ+qk+axZ8pSv9tQH/GijOhEwyeeZ+qSjbT1zF8iSlm3d1Sd3IFJ1Yj+qE/shTR3V56606nOPddI0Y8IOd/WNDd7Qyr+h3g2yY0CWP89zAaxcR6w/Kn8GlAiin/uFV+Vva0nzdpY6pIFKnknztjOF1/hcFrim/bSgy77yRUA/hYi68hONVFcBe1W6toRTp7phkJ0MOoAgsQN0khZ86pk3ooAp91hOOsIlEKo3trQFfmWLurE+9Yrs8SaXMu4RZAXT2DTITp9TaW6Q7SfICvyedtI7cnDUnbXMG0beggKlvPGMoCeQI0/5gKfepgJ1SgsMsUk7oI9+leZZb2S5k6+3upRxkRcv9UmefudLW/qlH9rjc+xTdiKY8jZYPwuQTfk7rr70ol9+VqC3sIyVK/o4xLRBdgzIEoR66wp8Ck4FsgAYdbjzp32BrPL5bW2E1nHpqkA29VXAZ1+nMmInKhhkp0MPa0DgKvjUs97QcgeOVJ6/dd0FuAAtf+Zf/WnAb45+F6u6giruwCn9pfYo088beCsLyOqN8NGnnJ3DNLBMPYPs9DmV5gbZtSDVJ0jhT+esJS7gDSAD0NK8FDYpB/rQgjeTehZAAsBc1MEe4Edd+hDIApJc5Ec/aEdeLOdZl6BTz4JtfCeNL7InO+PAVBBMWRxfhN2YjuPQb2Tpi7EJwuXTEO8G2TEgOw48lUfwRMglXyCrOmXuVYHspL7saydYdaKTBtnp0MNPCnjjCfxw51k/BxCM6l+00jM/C6Ce8mkLeJIne7IlqOJO+9gu1lF7IFZt1A9t5BP1yFcd34vn2CC7G6KGCCges+e/TAwYZGcEWd66pn/e5pn8SVCZljUBsvZ1IiN2otAgWww5ZQAQgORf3lJdgayefV9M37r1M8gaZMqAjOsMO04MsjOCbAqk8z43AbLz+pa266OvnaDYzP9nr0VBiTeu8a0rb0WB2UXtun0zAGyQHTagGFA9/2ViwCBrkJ36Jtkguzzs9RvZZoDJYNpOnQ2yBpkyIOM6w44Tg6xB1iC7PE6d2rNBtp2AZfBtZl4MssMGFAOq579MDBhkDbIG2ak4ubwKBtlmgMlg2k6dDbIGmTIg4zrDjhODrEHWILs8Tp3as0G2nYBl8G1mXgyywwYUA6rnv0wMGGQNsgbZqTi5vAoG2WaAyWDaTp0NsgaZMiDjOsOOE4OsQdYguzxOndqzQbadgGXwbWZeDLLDBhQDque/TAwYZA2yBtmpOLm8CgbZZoDJYNpOnQ2yBpkyIOM6w46TQYLs8rDEPVuB2RS442vfz66782Ff1mCQMfAPD/zrbAumA7Uv+tNvZ2/6r/f6sgaOgYpi4M6vPlzpyl+p1JqNWQErYAWsgBWwAlbACliBhhQwyDYktLuxAlbAClgBK2AFrIAVqFYBg2y1etqaFbACVsAKWAErYAWsQEMKGGQbEtrdWAErYAWsgBWwAlbAClSrQKtB9v7vPZrd+bcP+BqYBvf+0z9XG+W2ZgWsgBWwAlbACvRSgVaD7DV3fis7/ndv8zUwDT54/Vd7udg8KCtgBbqnwEU3/132pj+8x5c1cAxUFAO8oKzyY5AdGCR24YtBl0H24lvu9WZX0WZneOgePN39jQerPJ9aYeu3P/k3fpnic9IxUGEM3Pi/7q90bRtkK5ycLkBiF3zsMsi+41Nf8IbnNTXYGNj55e9UekDNa+zyyy+ft+ke7Qyy/qtoF87NLvlokPUh2ftD0iDrg6NLm7J93R2vbQHZs846K6sKZg2yu+fXsW4tqogBg6xB1iC7xzuT9mT4jaw3+io2+q7aaBPIVgWzBlmv6a6ux7b6bZA1yBpk28Ote3hikPWh19bDowm/2gayVcCsQdZruom1M6Q+DLIGWYPsHvhYfca8f5Y0yPrQG9KBlI61LMjee++92Qc/+MHaLgA2XvOuZ3YWg6zXdBrnfl4sJgyyBlmDbPXcuofFed/kGGQX2+B8QHRbv7Ig+4UvfGENaEborCs9L8waZLsdk95T2jd/BlmDrEF2D+ysPkOH6ayHn0G2fZumD7Lm5qTNIDvvl1ODbHPx47U6DK0NsgZZg2z13LqHRYHsrIefQXYYG7EP3PHz3HaQnXU9szEYZMfPtdeAdZk3BgyyBlmDbJZlO3furO33dfx2L4LsLIefQdab+7ybex/adQFkWc+bNm3a48trUYZBtj1r+pg3XpEd964/6/0Z2Ie9YNIYDLIVgywL40eefVq27mnPzp6w/oTsyDPOq22RPOetWzIuJph+V1ZW8vukCZ9UdshJZ478lt1J9VUW/VBem+5l/juy11xzzR6wmcJn1c9lfmZgkG3PodemmB6KL10A2XPOOSfjXzYr+zHIrl3TnF2clZxfP/DYffLzsy64pK94JtPnYaeeM/cZfeDzXzHy+4jT31naTurHUNZzXeM0yFYIsgAdC/EJRx6fHXXmBfmdhUK6jglc97RjskN++szcNgt/kX5YzI957OPyRc6CjIt9mu/4wTWt3rLK2wqyZd7MDgVkjzj9XfmXqL0PODw/1Njo64qXo/7jR0dvYVg/rNl5+9IhvNfjD8j9nsVO9GOWdkOq23aQnRVigV2D7G6Q5dxi/XF+cH5x7nAO7X/Mqfma1D7APX25wvpROWuCdH4OhvVNHS6tGV4ysccoj7OONlyxvepzp1/ZiT7gr14e5XXOvCCvu6bOrr7ll8pSP+S//FK/1OfSOEnHOtHPIacNshWCLIcii5CgVVDt/eTD80VJIBL0+ubJYtIC4u0t7VjQAkjqEuzcCV4OStJc1KEvPWsT4Jl+KaMftdE3RfmndspXG/IjDAPk2lDok3L5std+T85BHQCWPcEs31IZD/n6tksZ42GMXLz9VTr2Kd2qvLcZZKfB7BBAljhUrBALxB2xEdcR8UDspXGR1lF5zNchoDL6UsxhMy2PbdWm6I6vWn+sr6J6yo9jiH6ovKjvmB/TatfXe5tBdh6INcjuhlhiNp4riuEDn/+L+frnmTXCWanzROcjeZytnEOcK9RlHZKvdcUeQh51OGNZ85Tpkn3yuTgvaaM+KWdN056+yI9nps50+tea5LzDBm1Vzp08+av86Ac21A9jUN8aD3UZg9qgEXV8rWpgkK0wGIA+Fk4MLp65tIhYGApkgp6LAKcNwakgJmD1ZpdFQhvVUR/cdXjKPnXIY+HTBp+iTeqxGciGfKUPLVYWDAeuAIMy7HDhLwuePC7aY0v2tDFRprTqYB+7WrCkyat7UbYdZIHZot/YDQFkiU9iS7FIXBD/xF9+kIQDRocWcTw6HB5/QB5X5GGLfOJR8Uu8kYdd8nUYYJtLsctdhwX1sUccY1Nrg7bycxTXB6zGtfJZezrwGBfrmGfyscMaSv3I18XjD8jL6VsHdr4P7PqzK34wfvK0BtVnX+9tBdl5IdYguxa+WH/pmop5lOl8YO2wlnSu8GbysNPOHbVfXb+7z1/WFOtC9UnH9c4z9lnnXKQ5M2N9bLJ2tSel6wx7rGvWbKyHDZ3tOu/5q5PaRz9km3LGJJ+ow97FHoQGMY1fsuX7bZlBtkKQzQPv8QesCTACTkCqACXwyFcwk6+LYKU81iWQecPKYiFfQSwb1NdCJC27StOGNLaxw4GozYH8eOnAxWf61aGsw5U8+sUmb15py7N8om/KdNFebShT/ZhW2+hHlem2g+ykQ3EIIEusKB4078ojnxiKBwzpGMMccNTTGtCBwgFB7GFTdUhjm7qkaaf4407cx/rUoy15lKV+4gvrCpusLfoDXgFi2uiAy23vKpdP0Q8BL21Ym/KJOhyIOgzpn/axLW36epUF2YcffjjjvyVb1xV/Hz9pvZb5nax/WrA7XgWNgk7FfzwHtea0Lngm/lkjulgTpFV39fnZ+dpl/VIf25RrbfGsdaS9g7yYZl2yhvniqL2BOvGiL8qoRz5p2rFHsXbJo1/2MX0BjX6oP42FO+s91ilKRz+GnDbIJkG5SDBwgLIwWJzYUYCSrzSBrYOINIuTgE/71QIjnyDWYarFTD4Br8Ul+6qvxUpbLWLu8iXtj/b4RT7+yK4WMouQMm04Git5WoCklS9b5KkOvoxLy1fVrfreZpCddigOAWQ5tIhrzbvWB7EUN3DFuO6sCcWe4lqxji3qcXBQj/hV/KVrS/HHXXWU1tsSwFRf5uRnvLOWsctd/imP8Qh4Bba0jX7QHzpw55IesU5ROvrRt3RZkC0DkIvUEchOW69l+jDI7gZB1gZrk7808DZy/Rnn5etM65CY5wui1jLnkeCXNUW86zejWrN53q43rNjXOiQfu+wJ2ONZa0prNrYlvbo3vSLjbanOPvK58AN/aYuPgm/5h23a4AN37SXUxw/2AtKUUxc/satxUYcxkVeUli9DvxtkKwRZgokDiKDUpQNJC4VFSxmHqwKcBcDi4hJAUoc22FRbDlMd3uQT3NQj2FVH+XEBUId8Fo4OdfpiYZHPFf3GRy0m2WUDoR6LTb6qD20UPDMm7nlfu37bRDvy8HdcWnYoq+NqK8iWORSHALL6skTMET8casQgaWKGWKJMcUbcrh4wa+FXsaoYIq60/vhypvhjPQC+sq/4Gxej9Jm3PWn1ja9s684Bhx0dUtilDP/wW+tGaw1/1F/0g3p6i0t7bHKnDuOalKasr1ebQLbMejXIzh6LxDfnErHOutc6VcyrjHtcR9Tn0pnJnfVKO9YP64xy1hx2ydfeoWfu7C1cyovpeOZiSy+psEU91jn5+MYz+VzYIi/2ST180n5BW/XJvkFatmjHWDS2orT6G/rdIFvDIUCg6vBRgOmQ5Z6WUYdFoEWqNvGOzbhQVEYbyvRcdFf/1OViwaR+jOsD+9SNC5i81JfUj3F1inyrO7+NIFv2UBwCyBJ3OnSINTZ4xRuHmjZ8ygSmlGvjV3wqxhVPbP6UcaBw6YBUXzxz8Uwb7rEOaeIcG5ThR/rXE9lSHcaCLdrKL545kPgCSJ5glzye1Q/2eebSgUxa67QorfH28d4WkC27Xg2ys4PspLgl5rUmJ9Wrqyxfi6edm+8DrF+ty2n98SW2bN1ptlw+PaYMsjWA7LjA04GYAuC4unXkccDq4AQABATT+mIx6lvjtLptLS8Dsvfff39tv69L/z/wsxyKQwDZSXHDISbQnFSvrjLWieCVtcDBVqYvvWEpU9d1ig+qtoDsLP+d2Gkw658WFM93uhZY+/pSm5Y18cyaxweuskDNGU99XuY04aP78L/s5UBrCOSXudjKgOy0w2fR8nl/Yzd0kAUIy37pqiPGdCjxtnSWQxWfyx58dfjdF5ttAdlF139sb5AtD7J9iWOPo9459xvZAYDc0BdRW0B2ljexOviGDrJDj92hj98gWy8ADD2+PP5+xJdB1iDb+7fSbQDZeSAWmDXI9mOj9YE53zwaZOfTzfFm3YYUAwZZg6xBVq8/a7zP+xs7g6wPpCEdSOlYDbKO/zQm/OyYSGPAIGuQNcjWCLCLmjbIetNON+0hPRtkHf9DinePdb54N8gaZA2yi9Jmje0NsvNtbD4Q+qGbQbYf8+j16HmsMwYMsgZZg2yNILqoaYOsD4A6D4C22zbIOv7bHqP2b/kxapA1yBpkF6XNGtsbZJe/SfqgWt4cGGSXp73j3tp3JQYGBbK3ffk72Zv+8B5fA9Ng0198s0bUrNe0QdaHSVcOkzr87CPI1rtj2LoVsAKLKrCyqAG3twJWwApYAStgBayAFbACy1DAILsM1d2nFbACVsAKWAErYAWswMIKGGQXltAGrIAVsAJWwApYAStgBZahgEF2Gaq7TytgBayAFbACVsAKWIGFFTDILiyhDVgBK2AFrEBfFbjhnm9nl956ry9r4BioKAa+9o+PVLpdtBpkv/j3DzlwKgqcLm3EXf43n7/6jw9nd/7tA76swSBj4P888n8rPaDaYOy3P/k3vf9PHtbxX7CwTf8XXIpiYFD/+a1r7vyWN5AB/ndzP3j9V9twfs3lg//zW968izbvIeR3+Uto0YI3yHpND2HtNjlGg+wAwa7JAGtDXwZZHxxtiEP7MHscGmRn18xxZs2GFgMGWYNs799SG2S9sQ9tY+/LeA2yXrt9iWWPo75YNsgaZA2yRX8DbEG+f1pQ3+bng6X92hpk2z9HXkeeo2XHgEHWIGuQbQGwFrlgkPUhsexDYpn9G2Qd/8uMP/fdjfgzyBpkDbJFFNmCfINsNzZSH3j1zJNBth5dHa/WtU8xYJA1yBpkWwCsRS4YZH3g9OnAmXUsBlnH/6wx4/rDixmDrEHWIFtEkS3IN8gOb1P2Qbx7zg2yu7VwXFgLx8D4GDDIGmQNsi0A1iIXDLLjNy5v6MPQxSA7jHn2evY8LxIDBlmDrEG2iCJbkG+Q9Qa/yAbf9bYGWcd/mRg+6swLssNOO3d0lvF8xOnvHD2XsaE6h516TvaEI4+fq61s+N5s3BpkWwiyLMC4CEmzMOdZHOuedkx2yE+fOVfbefprYxv/d2Sb3VSWFQMcZMe88YpRrB9y0pnZce/6s9HzLH7tfcDha2zN0tZ1q4s3g2x1WvY5LjnjVlZWRmudZ86+eca8SNt5+nObxWPcINtCkGUBxkW4CIwu0rYvC8wgu/hG0YVY4CCLX9p4nvcL4CJtu6BVV3w0yA5j7S4aj5NA9sgzzsvWPe3Z+cWXW/ri5VD+5nX9CXmaL8BPWH/C6OLcpB151KccG3wxfs5bt+Rp7tiTbepTF18OfP4v5vm0k23qqf9Fx+v2a9eFQbZjIPsjzz5ttHD01pZFExeOFi6LkDdLLCwtLhYA7bRA88V65PH5Ao22WXzUZfHJNs+yTb76b/uiMsiuXfRtn695/SsCWQ4fxTZ3vaVVDHOnTx1KvNkVyLJO4gEV0xyErJPUNgcc7bDH2sE2NumHupTPO8ahtTPIDmPtLhrX0bfD+AAAFJpJREFUAlnWGNdejz9g9DKIdZr/9ODUc/J1nQPorje4rE/K+CnB3k8+PF/rj3ns4/K2rG32Ae6yz/rn3KMOPqs95T/w2H3yPCCYdpTRF75QTlvtK4uO1+3XrguDbEtBlkWhRUmahUDwalGySOLCYWFRxsIhf/9jTs0XHAuHtiw+0tjQQqMu9VjEpKmjRU0d6tJmr/2ePLLNMwtbi1JQ0OaFZZBdu+jbPFeL+JbHan6ArR5mPBPPxKvWDbFMzCu2ObxYHzq0qMd6UFvSXKP6BxyepzmcqMua0brRGqRP2mNb5fSrtSV7i4x1KG0NssNYu4vGM2uYNcedi/NLZxjr7sDnvyI/T7WuqcP6VL/ks1Z5VnvSOvuwRX3OXfYP7SGcg9jmhRE2aBP75lwln3LO83iWq2/fF49xg2xLQZZFwwLkIs3iIuCPOP1d+YJIF47Kqa/FqkVFGcCp/Hxh7TpkOZC1gPXWKH6bpW5qW4Ate21fiAbZxTeKts8x/hGPHCLEK1eMT2KbN6RpbHMQ0Zb6HFoap9qyNjh8WFeUky/o5ZBiXUXb2EnXIIceNlg3cd2qL9+L49MgW6yN42a3Nlrv0oRngazgMa7LWE4bvoSSRxpYVVulWffsFewfXKS1D5DmSy11aB9BVueuvkjjQxde/kjHrtwNsi0FWS0kLQwWWVyISsdy0voGyOJiwbDotEABYi5sayGz+GjDQuOgJq0y7FGu9uqzawvRILt7w2dO+3rFWFXsErOKbdKK/1hOmhjnwCOtw4f6Wk+8RaUO7Ulzpy5pLtmmDml84U4dQJb6PHNxAJLva7oGBtnpGjmOVtcva05asA51hgKp/NSHS+syltNGf+Hkyyb11ZZzlDZ6Js3FHqG9YfVt7+rPCbBFXdXXc34On3Rm7oPXf/UxbZBt4YEybiGw8PQNkIWjt0NaKJST5uLQ1DdH0irjziKMtnQga8HyGz5sayGqPnZZvNTnrRKbAn2ozzbfDbLVbxxtnO8Yq/jHM+CYgyxf6E46c80hpXLq6lAitonxWBafOfAo4067HGoP4E+Orxi91aHP2F7P1Fm9Vtu2UcO2+WSQHcbaXTTuWL+sM9nhWcBIWmcedQShKlcb/QwotqWMNuSRpk1sRxrblKv/tA7tOF+px139+V5dbBtkWwiy6ULgWQtJC0Z3LS6V88xCZVGpncqUz516cYHKjvJoO66ObMg+ddp+GWTbP0dVxBDAqljHHs+KdQ4pnolbHSaxnPqU6VCKZeTzTB3sUUd2uVOGfa0J5akO7VhPtKNu9JEyX8UaGGSLtXHcWBvHwGoMGGR9kPT+IDXIesP3ht/NGDDIdnPevN48b03GgEHWIGuQbcH/wavIBf+fvXwgNHkgtK0vg6zjv20xaX/aF5MGWYOsQbaIIluQb5Bt36bpg6y5OTHINqe149padzUGDLIGWYNsC4C1yAWDrA+Xrh4uVfhtkHX8VxFHttHvODLIGmQNskUU2YJ8g2y/N2AfsJPn1yA7WR/Hj/VxDNyWGWQNsgbZFgBrkQsGWR9UQz6oDLKO/yHHv8deLv4NsgZZg2wRRbYg3yBbbiPzht9PnQyy/ZxXr1fPa5UxYJA1yBpkWwCsRS4YZL3hV7nhd82WQdbx37WYtb/Nx6xB1iBrkC2iyBbkG2Sb3xR9ELVH8z6C7A33fDu79NZ7fVkDx0BFMfC1f3yk0tN6pVJrFRv74t8/5MCpKHC6tBF3+TDc8df3O2YHGLNdWl91+nrvP/1zxaeAzVkBK2AFJivQapCd7LpLrYAVsAJWwApYAStgBYasgEF2yLPvsVsBK2AFrIAVsAJWoMMKGGQ7PHl23QpYAStgBayAFbACQ1bAIDvk2ffYrYAVsAJWwApYASvQYQUMsh2ePLtuBayAFbACVsAKWIEhK2CQHfLse+xWwApYAStgBayAFeiwAgbZDk+eXbcCVsAKWAErYAWswJAVMMgOefY9ditgBayAFbACVsAKdFgBg2yHJ8+uWwErYAWsgBWwAlZgyAoYZIc8+x67FbACVsAKWAErYAU6rIBBtsOTZ9etgBWwAlbAClgBKzBkBQyyQ559j90KWAErYAWsgBWwAh1WwCDb4cmz61bAClgBK2AFrIAVGLICBtkhz77HbgWsgBWwAlbACliBDitgkO3w5Nl1K2AFrIAVsAJWwAoMWYFeg+xrXvOa7D3veU8+v1//+tez9773vdl3v/vdwvm+4oorsquvvrqwvKqCl770pSO/qrJZxs7NN9+cvfCFL8zQwh8rYAWsgBWwAlbACnRdgaWC7MrKSjbuOvHEEyvRFduyBdDyHMH2lltuWQO28qWSzicYiX7FanfdddceegCeVcG1NABou/JBE+bJHytgBayAFbACVsAKpAosFWQBKy5gE7h79atfnT9ffvnlqZ9zPUdg5C0kdvVGdhzUAYxNQF70Kw6Mvik79NBDcx3OOeecbN26dXleFZqMG3Psv41pxUYbfVumT8Rz0Zt14J8P8fx7v/d7jblJjPLFS/3TdxVxqwEwnmhf+U3cWYv8JcUfK9BmBfjSv8wv/qz3JvecuuaCPYy9psr9qy5fbTfLlgqymoBxgMUhTSABdxwgHCR8+PM/+VzkR/Ak+MijjJ8RRGCMhyDB+dSnPjUvP/roo0e2aYsv+qhv9YcNfajHJbvU0QFOndTP2Db6JXvcBbJ6i0weNqm/3377jarGceJz7Bc/GB/jJ83PKybBu+qldbHLpY/mg3FozNEP+ozPH/nIR9Q0v8d+SOuDhswtY8cHLmlFGeNm/OTz7M+qAs961rNyXVKYfclLXjLK15cAzf847Zi3qg4e5oe50pokzRexqj6p/WhXZfSpK10bsf6saWk5a7tl1medaS0t0w/3Xb8CrGPtlcQ/6Srmnj2dOJq0h8TR6cVLzKsrrXWuO2d6PFsW6VdncZfOnFnnahF92ta2tSCrQGJB8oaSA5qJYqHozS1pyvURnHLoaEEJCnXQYZdFj00WAEAgSOZZ9emLZ70dVX1tDtSjb/ohTd3oS+on5doMYj/ynbvGLB9UJjihHHChH/xmTNx5FtBgmwt/BTtAIJ+oAc8c9NRFTy7SgD0f9YkOfNCIcnyQHfrFV2ktv/SctsWG7GCDj3TEtnQkjVbUkS3K1CZvOPB/8EUBndIvDJoD5CEmNAdFcknzovJZ8hUXxAgf+p7W/yL2Y1v1jR6sUcVZXBux/qzpKnWate9562tNzdve7bqhgM4N9krFv87IRUegdaU1Pc1e1Wt+Un/EN2ccvjFunXfxBcyk9pPKpGmXzpxZ52rS+LtW1nqQJTgFgKm4ceIUeBxgfFhQcSOPdSlPn8mL9QV2WsBAQSzXwaaDOq2fO7HrH2lf0U6spzFgO35i+5imDoc29oBzPqSBWGkmABcYUk4/6XhoG8cgu9KTLwnY4iMfBFF65s4HX+iHcvoljW19mFMBc6qjAES6q1xtfV9VQPMnHcnVnGle0FJfYohT0swNc8l8UA7oMT8qi/WkNWWKA8o5KGjHRVqxpjjQ3MV28oW8mE/bc889d2Qv/gWB/lXGOPXlSvblH/e0b/LQIY093tgwfnyPfaELfmGbviinb33SOKQe9bGPPb0JGqcfvlGXDzrwHMdFG9rTJ7Z41oc0/tAPd+ZYH2wyRsahOVRb+YZN0spXW9/7o4DWhc6AdGTMvV5azBL32isUe9oDiEHFF/Ea14nWOT7QL/W0trAT1xx1tB4pi3uJ2nDHZ+1pcWy0iWcle4nOO8V7HDu+Yk8f+ZauRcpZ39hnreoTfaWt9iGNWfsgd8rxOdWAsdBf9AtN4kf9FM0V+qd7FONifPhMmeYq2u1zuvUgGwOJiWCStbEzaVwEFPVIx4DnWYGucgVf+oztWD89uKaVp/aK/Ezt8KyPFo98Vr58oVywia/x0rjjGGgf20Yf1Rd5+sRy8viGz+IQNGlxpPXS52hb6egraWzzkX9FPqTlqud7NnoDwfzwUWzoOWoX54EvEswlV3zjzQapejEuYkyRz8HJnfaU6UtKGgdpO/zRQaM28pmNWO1VpmfaqR428TH9qG4s40ChPvsFH9XhTn+MnQMnllGfcclPHXxRS60H6mBLIEE67RPbHEhozkd2aBvHFJ9Zc3zoR20ZFzbwT/NLmot82cWX2A9jpExt8kL/o1cKKA7GDYp4JIaIgxirihPy1J541H5AvLEfaB1oz6AP8lgjtFXcUZePnkljQ7bpT7Z0Vqlv7kXrEd+xqXWYd7LrH9imLH5kkz40dnzHP61T7RHyTePhmf74yHfs8dFehw3y0Im6rCv6oq185K5n2eEZfaUBz/iuZ7WV/9zJo59xe1ScK6C4aK5y5wfwj06BrAKESSZAdBCQjmWaNwULzwoQ6o57Ji/W14JkMfDRAaWFo/K8MLEvX/Av9TPtR+25Uzf6QB5BSh4BzUcLSuPIM8M/0vaCfvyPGqgv7OmT2tazNgB84RPtjHuWberJ/9iP+uM+Scdx5bHt0NPpBsrGyqatT9RWc6L4HVeHPNVj7vRJY0r53GNZGhexTG2IR2JZYJXWwT8dJjF2aa94xMf0k/atcuxr7UzSR+1Zu3wUt8Q+n6il/NDhTTn9CEDjeqEOZTq8ZUf7ig4yPTN/1OcjnzTedG6oF+ebZ0G7fErnOzfsf/RKAeZdMZMOTGeR4o/ycTGmcsUrsccnjcHUfhqTim/qqUx7v9YU5yIf1kuMX53nlKlf+ZE3SP7BmNP4ju00dq1T9hzayCZp1p/WnvrHb/ke60Zftfdyl13tFVr/2JUdaSB9VVfl6meWPUrjU1vujAmbQ/t0CmQ1UQoeHXRMnIKJxbFt27bRn1IU6GqrSdYzb04V6HFhqJzX/vxboPrzHfl84oLlWfWxnwZ59JO6sZ/c2K5/0JYyxoBf+pMHeTpgFbzyC9/4l3UiGFCf9uSTZrHyiT7yzAHPwkEvLtLkaWFr44k2xtlJ7Woc0or+1Q/+0pfmYZKO9KVNgbFonsj3Z/WNHXODRporYk+fqG06J+PqkDeuHn1oHdGP4pn8WJbGQSzDtsrlo3yWHd0FnkXtFTsaQ7Qdy7QnyHfZT+9F7WP/UUultU5orzzSOqw4vHQ4an3Gemm79Fl6pf5Kv+hf2pbntJw8f/qngOJj3MgUQ3FdxBhMy9P1n5bTB/HHGaV+uVOPT7Sd2qI8xmRsH9PUG9dv3kH4R7SlbH3J5JyUjWibtHxN26s+fkffWedp3VhO3zqntKcVgWraLn1OfdUzfUT/eE7bpuXSZAj3ToEsh4HeYDDBCh4mlI8mUkHHNygWFh8WH/mqS8BxYKoudWKaZx1C5HPpWxVlccHyrL6xT+DrW69sclffyqNd/GgRUK6LflKA02JVHTTRQUkezxobd+zyiT7yjD9RT9KqK780jjj21E6qLXbxg3p8sBn7oUxgPklH+aixaHOQb77vfruiWFUcoE3UNp0TaRfrkKd6mu90E+cAYy7VD3OJDT5pXMQy6sdn9T8uT2WKGT0r7vEx/aR9U55++aSv+MYy2lB7rTWtRcVc1ElaRz/4ooa/+hCzaMUV3+REO9Sd9CyfYj+yzz3VLrWVlse2TvdHAZ2D+oKjkbF2FUPabynTF1HSKleMcSduyB9XHtcF9tP6MQbTMuzFmGSNTFuP8it3JvlHtEUR/rAOyWe/0bmkNZ00z+vF/uO6Tn3HZqyrF0rSXM/SVnqndqY9p/1En2edq9i27+lWgOysIrOYCNpxH/J1yI4rT/OwNe0zaTFNajvJz0ntypbhV6pDXNxl/UavIs20uMvoNM1v+pjXzrztpvnU9XJt1sx7BCbGNe1QiXV4g0+8MEfY4kAgT29esMUHWKNMfwmI8ZZutLFMhy3/Qgd2tdHLR964y6YOB8UebfjrBPa4xsW1+gZesa8DBU20RuQD5fTFfyIvPbA1brVP/UQDvXGlTvzrj2xRR9CNvxoP+RovaT6Tnhkn7ekHf7nQQWuVMs3LOFuUazxqs9qr/9knBRQnzLfin99VEo9az6xj4p3Ypx5ri4/WjdaUbCmWtb+wBlkL7MO055l45M6z6sd4Tm3RH3UVs1rfk9aj/Bo3X9hiXLRn3MR69EVj1zrV+tFZQl0utNL+AlzzSX3XuOgLHemLunFd8Yw97tpzUjvTnsvsUdIktaW51FyN06yveZ0E2b5ORhXjYiFpo1jUHosRe/FN06I23b5aBdhItYFGYKIXNkXK+OgASusAZWl7bYjMPUBGPGGLD4eZ6pMfy3To6aCgntppg8ZmjCn8x4byaaNDkfhTGTEov7SR5w7t+of6lm3aUV8HCtVIRz9iX7LN4arx6a00bbFHvj7UVz3usS51dIjiTzzsUjv4E+2mz1FvbAHmskc76uuT2taYaKc5UV3f+6UA65jYYK4VJ5pzYoj1ozJiXOtC60Z1uVNP+wT11FaxFr+kKa36MX5TWyiObdnBtmCWfOKZmOWT+jVutuQXbYl97KZvX3mO9eL6oR3PtCVNvUk6qJ7apfuQtGBM+qQaFD1r3JP2qFST1Bb7gsYqjeVH3+8G2Z7NMAsiXczzDpGFUaW9ef1wOytQtwLEOQdUejjN2y9rRwfevDbczgpYgfoUYH0Cp1V9BLJVnb9V+TUEOwbZIcyyx2gFrMBEBaoGWdnjbZg/VsAKtE+BqkFWPzdo30j775FBtv9z7BFaASswRQH+TAd86k+uU6pPLeatDH8KrMre1A5dwQpYgZkUYH1W9faUdc7+UdVfdGYaiCtnBlkHgRWwAlbAClgBK2AFrEAnFTDIdnLa7LQVsAJWwApYAStgBayAQdYxYAWsgBWwAlbAClgBK9BJBQyynZw2O20FrIAVsAJWwApYAStgkHUMWAErYAWsgBWwAlbACnRSAYNsJ6fNTlsBK2AFrIAVsAJWwAoYZB0DVsAKWAErYAWsgBWwAp1UwCDbyWmz01bAClgBK2AFrIAVsAIGWceAFbACVsAKWAErYAWsQCcVMMh2ctrstBWwAlbAClgBK2AFrIBB1jFgBayAFbACVsAKWAEr0EkF/j+tLBrFhDgIFwAAAABJRU5ErkJggg==;" vertex="1" parent="1">
          <mxGeometry x="80" y="110" width="680" height="253.28" as="geometry" />
        </mxCell>
      </root>
    </mxGraphModel>
  </diagram>
</mxfile>
